STARTFONT 2.1
FONT big5.9800.16
SIZE 16 72 72
FONTBOUNDINGBOX 16 16 0 -2
STARTPROPERTIES 4
FONT_DESCENT 2
FONT_ASCENT 14
DEFAULT_CHAR 0
COPYRIGHT "Copyright (c) 1992 AT&T - All rights reserved."
ENDPROPERTIES
CHARS 268
STARTCHAR ch-0
ENCODING 0
SWIDTH 1000 0
DWIDTH 16 0
BBX 16 16 0 -2
BITMAP
1084
09ff
7e84
2248
14ff
7f88
00fe
3efe
2288
22ff
3e7e
2224
2218
3ee7
0000
0000
ENDCHAR
STARTCHAR ch-1
ENCODING 1
SWIDTH 1000 0
DWIDTH 16 0
BBX 16 16 0 -2
BITMAP
3ffe
0080
0100
1204
1ffe
1004
1ffc
1004
1ffc
1004
1ffc
0410
180c
6003
0000
0000
ENDCHAR
STARTCHAR ch-2
ENCODING 2
SWIDTH 1000 0
DWIDTH 16 0
BBX 16 16 0 -2
BITMAP
04fe
7e10
0820
08fe
0882
0882
08fe
0882
08fe
0882
08fe
0844
2882
1101
0000
0000
ENDCHAR
STARTCHAR ch-3
ENCODING 3
SWIDTH 1000 0
DWIDTH 16 0
BBX 16 16 0 -2
BITMAP
01ff
4010
4020
48fe
7c82
4082
40fe
4082
40fe
4282
42fe
3e44
0082
0101
0000
0000
ENDCHAR
STARTCHAR ch-4
ENCODING 4
SWIDTH 1000 0
DWIDTH 16 0
BBX 16 16 0 -2
BITMAP
10ff
1008
1010
7c7e
1442
147e
1442
147e
1442
1542
157e
2524
4742
0081
0000
0000
ENDCHAR
STARTCHAR ch-5
ENCODING 5
SWIDTH 1000 0
DWIDTH 16 0
BBX 16 16 0 -2
BITMAP
01ff
7e10
0820
08fe
0882
0882
08fe
0882
0efe
7882
2082
00fe
0044
0183
0000
0000
ENDCHAR
STARTCHAR ch-6
ENCODING 6
SWIDTH 1000 0
DWIDTH 16 0
BBX 16 16 0 -2
BITMAP
117f
1510
157f
1541
1541
157f
1541
1541
157f
1541
1541
157f
2122
4141
0000
0000
ENDCHAR
STARTCHAR ch-7
ENCODING 7
SWIDTH 1000 0
DWIDTH 16 0
BBX 16 16 0 -2
BITMAP
01ff
3e10
0820
08fe
0882
7ffe
0882
08fe
0882
0882
08fe
0844
0882
0901
0000
0000
ENDCHAR
STARTCHAR ch-8
ENCODING 8
SWIDTH 1000 0
DWIDTH 16 0
BBX 16 16 0 -2
BITMAP
05ff
0810
0820
12fe
2282
0482
08fe
1082
22fe
0282
0482
08fe
1044
6183
0000
0000
ENDCHAR
STARTCHAR ch-10
ENCODING 10
SWIDTH 1000 0
DWIDTH 16 0
BBX 16 16 0 -2
BITMAP
01ff
7e10
0820
08fe
0882
3efe
0882
08fe
0882
0efe
7800
204c
0043
0181
0000
0000
ENDCHAR
STARTCHAR ch-12
ENCODING 12
SWIDTH 1000 0
DWIDTH 16 0
BBX 16 16 0 -2
BITMAP
15ff
1410
1420
22fe
2982
48fe
0882
10fe
1482
22fe
7e10
222c
0042
0181
0000
0000
ENDCHAR
STARTCHAR ch-13
ENCODING 13
SWIDTH 1000 0
DWIDTH 16 0
BBX 16 16 0 -2
BITMAP
0800
087f
7f08
0810
087f
3e41
027f
2241
227f
2241
1441
087f
1422
2241
0000
0000
ENDCHAR
STARTCHAR ch-14
ENCODING 14
SWIDTH 1000 0
DWIDTH 16 0
BBX 16 16 0 -2
BITMAP
0200
05ff
3810
2020
20fe
3f82
24fe
2482
24fe
2482
24fe
4428
0446
0182
0000
0000
ENDCHAR
STARTCHAR ch-15
ENCODING 15
SWIDTH 1000 0
DWIDTH 16 0
BBX 16 16 0 -2
BITMAP
1000
08ff
0810
7f20
00fe
0082
3cfe
2482
24fe
2582
26fe
2428
4046
0082
0000
0000
ENDCHAR
STARTCHAR ch-16
ENCODING 16
SWIDTH 1000 0
DWIDTH 16 0
BBX 16 16 0 -2
BITMAP
3eff
0210
14fe
0882
0882
7ffe
0a82
0882
08fe
0882
0882
08fe
2844
1183
0000
0000
ENDCHAR
STARTCHAR ch-17
ENCODING 17
SWIDTH 1000 0
DWIDTH 16 0
BBX 16 16 0 -2
BITMAP
3eff
0008
0010
007e
7f42
147e
1442
147e
1442
157e
1624
2422
4041
0081
0000
0000
ENDCHAR
STARTCHAR ch-18
ENCODING 18
SWIDTH 1000 0
DWIDTH 16 0
BBX 16 16 0 -2
BITMAP
0002
15ff
1410
22fe
2182
40fe
3e82
12fe
1282
12fe
1228
1224
2643
4081
0000
0000
ENDCHAR
STARTCHAR ch-19
ENCODING 19
SWIDTH 1000 0
DWIDTH 16 0
BBX 16 16 0 -2
BITMAP
0802
08ff
0810
7f20
08fe
2a82
2afe
3e82
2afe
0882
0afe
0c28
0846
0182
0000
0000
ENDCHAR
STARTCHAR ch-22
ENCODING 22
SWIDTH 1000 0
DWIDTH 16 0
BBX 16 16 0 -2
BITMAP
0800
087f
4908
4910
2a7f
7f41
087f
0841
7f7f
0841
087f
1014
2022
4041
0000
0000
ENDCHAR
STARTCHAR ch-23
ENCODING 23
SWIDTH 1000 0
DWIDTH 16 0
BBX 16 16 0 -2
BITMAP
04ff
0410
3fa0
24fe
2542
3f7e
2142
2a7e
2a42
247e
2a24
2924
5143
0081
0000
0000
ENDCHAR
STARTCHAR ch-24
ENCODING 24
SWIDTH 1000 0
DWIDTH 16 0
BBX 16 16 0 -2
BITMAP
09ff
1410
1220
21fe
5c82
00fe
7f82
02fe
2482
1882
08fe
0844
0083
0301
0000
0000
ENDCHAR
STARTCHAR ch-27
ENCODING 27
SWIDTH 1000 0
DWIDTH 16 0
BBX 16 16 0 -2
BITMAP
0800
0f7f
7808
0810
7f7f
0841
7f7f
0841
1c7f
2a41
497f
0814
0822
0841
0000
0000
ENDCHAR
STARTCHAR ch-28
ENCODING 28
SWIDTH 1000 0
DWIDTH 16 0
BBX 16 16 0 -2
BITMAP
087f
1408
1312
217f
4042
3e42
007e
0042
3e7e
2242
2242
3e7e
2244
0183
0000
0000
ENDCHAR
STARTCHAR ch-29
ENCODING 29
SWIDTH 1000 0
DWIDTH 16 0
BBX 16 16 0 -2
BITMAP
0400
043f
7fc4
0008
113f
20a1
407f
1121
113f
0a21
043f
0a14
1122
20c1
0000
0000
ENDCHAR
STARTCHAR ch-30
ENCODING 30
SWIDTH 1000 0
DWIDTH 16 0
BBX 16 16 0 -2
BITMAP
0800
087f
7f08
4110
417f
2241
227f
7f41
227f
2241
147f
0814
1422
2241
0000
0000
ENDCHAR
STARTCHAR ch-32
ENCODING 32
SWIDTH 1000 0
DWIDTH 16 0
BBX 16 16 0 -2
BITMAP
1000
1f3f
2108
4210
3fbf
2021
2fbf
28a1
28bf
2ba1
283f
2844
484a
0fd1
0000
0000
ENDCHAR
STARTCHAR ch-33
ENCODING 33
SWIDTH 1000 0
DWIDTH 16 0
BBX 16 16 0 -2
BITMAP
0802
09ff
0810
7f22
08ff
0882
3efe
0082
3efe
2282
22fe
3e2c
2043
0181
0000
0000
ENDCHAR
STARTCHAR ch-36
ENCODING 36
SWIDTH 1000 0
DWIDTH 16 0
BBX 16 16 0 -2
BITMAP
0002
7eff
4810
4822
487f
5e42
527e
5242
5e7e
4842
487e
4824
7e43
0081
0000
0000
ENDCHAR
STARTCHAR ch-38
ENCODING 38
SWIDTH 1000 0
DWIDTH 16 0
BBX 16 16 0 -2
BITMAP
0800
087f
7f08
0810
107f
2241
7c7f
0841
107f
2241
447f
0c14
1222
6143
0000
0000
ENDCHAR
STARTCHAR ch-39
ENCODING 39
SWIDTH 1000 0
DWIDTH 16 0
BBX 16 16 0 -2
BITMAP
0800
107f
2010
7e20
427f
4241
7e7f
4041
407f
7e41
427f
4214
7e22
4041
0000
0000
ENDCHAR
STARTCHAR ch-40
ENCODING 40
SWIDTH 1000 0
DWIDTH 16 0
BBX 16 16 0 -2
BITMAP
7700
117f
1108
5510
337f
1141
337f
5541
117f
1141
117f
1114
1122
6643
0000
0000
ENDCHAR
STARTCHAR ch-41
ENCODING 41
SWIDTH 1000 0
DWIDTH 16 0
BBX 16 16 0 -2
BITMAP
1100
113f
0a04
3f88
113f
1121
113f
7fe1
113f
1121
113f
1114
2122
4143
0000
0000
ENDCHAR
STARTCHAR ch-43
ENCODING 43
SWIDTH 1000 0
DWIDTH 16 0
BBX 16 16 0 -2
BITMAP
0002
14ff
1410
1420
557f
3641
147f
3641
557f
1441
147f
1500
2522
4341
0000
0000
ENDCHAR
STARTCHAR ch-45
ENCODING 45
SWIDTH 1000 0
DWIDTH 16 0
BBX 16 16 0 -2
BITMAP
0402
7eff
0010
7e20
42ff
4281
42ff
7e81
00ff
4281
24ff
1824
7ec3
0081
0000
0000
ENDCHAR
STARTCHAR ch-47
ENCODING 47
SWIDTH 1000 0
DWIDTH 16 0
BBX 16 16 0 -2
BITMAP
087f
1f88
3110
4a3f
2c21
183f
1021
6921
093f
3fa1
0921
093f
1112
2121
0000
0000
ENDCHAR
STARTCHAR ch-48
ENCODING 48
SWIDTH 1000 0
DWIDTH 16 0
BBX 16 16 0 -2
BITMAP
08ff
0820
7f7e
0842
2a42
2a7e
2a42
5d7e
0842
1442
147e
2224
4142
4181
0000
0000
ENDCHAR
STARTCHAR ch-50
ENCODING 50
SWIDTH 1000 0
DWIDTH 16 0
BBX 16 16 0 -2
BITMAP
0080
773f
1208
2210
423f
6fa1
223f
2221
223f
2fa1
603f
3000
2812
47a1
0000
0000
ENDCHAR
STARTCHAR ch-53
ENCODING 53
SWIDTH 1000 0
DWIDTH 16 0
BBX 16 16 0 -2
BITMAP
3f80
04bf
0488
7fd0
04bf
04a1
3fbf
0821
103f
3fa1
50bf
1092
1f92
10a1
0000
0000
ENDCHAR
STARTCHAR ch-55
ENCODING 55
SWIDTH 1000 0
DWIDTH 16 0
BBX 16 16 0 -2
BITMAP
043f
0a08
1110
20bf
4e61
003f
3f21
023f
0421
3f21
213f
2112
3f21
2141
0000
0000
ENDCHAR
STARTCHAR ch-56
ENCODING 56
SWIDTH 1000 0
DWIDTH 16 0
BBX 16 16 0 -2
BITMAP
0102
7fbf
1508
2a10
543f
2a21
153f
0021
7fbf
0821
083f
080c
7f92
0021
0000
0000
ENDCHAR
STARTCHAR ch-57
ENCODING 57
SWIDTH 1000 0
DWIDTH 16 0
BBX 16 16 0 -2
BITMAP
0602
78ff
0810
7f7e
0842
1c7e
2b42
497e
1c42
1442
157e
2622
2441
4081
0000
0000
ENDCHAR
STARTCHAR ch-59
ENCODING 59
SWIDTH 1000 0
DWIDTH 16 0
BBX 16 16 0 -2
BITMAP
09ff
2810
2e20
28fe
2882
7ffe
0882
28fe
2a82
4482
04fe
0828
1046
2182
0000
0000
ENDCHAR
STARTCHAR ch-65
ENCODING 65
SWIDTH 1000 0
DWIDTH 16 0
BBX 16 16 0 -2
BITMAP
087e
7f10
4120
417e
3e42
087e
0842
2842
2e7e
2842
2842
387e
2824
4742
0000
0000
ENDCHAR
STARTCHAR ch-67
ENCODING 67
SWIDTH 1000 0
DWIDTH 16 0
BBX 16 16 0 -2
BITMAP
0400
24bf
2488
1510
0a3f
1121
60ff
0421
24bf
24a1
153f
0a00
1112
60e1
0000
0000
ENDCHAR
STARTCHAR ch-68
ENCODING 68
SWIDTH 1000 0
DWIDTH 16 0
BBX 16 16 0 -2
BITMAP
3f00
013f
0208
0410
44bf
44a1
44bf
65a1
56bf
4ea1
55a1
64bf
4492
7fa1
0000
0000
ENDCHAR
STARTCHAR ch-69
ENCODING 69
SWIDTH 1000 0
DWIDTH 16 0
BBX 16 16 0 -2
BITMAP
0100
3e3f
2004
3f88
20bf
3fa1
203f
2f21
293f
2f21
293f
4f00
0912
1321
0000
0000
ENDCHAR
STARTCHAR ch-70
ENCODING 70
SWIDTH 1000 0
DWIDTH 16 0
BBX 16 16 0 -2
BITMAP
3eff
2a20
2a40
3efe
2a82
2afe
3e82
08fe
7f82
1c82
2afe
2a28
4846
0982
0000
0000
ENDCHAR
STARTCHAR ch-72
ENCODING 72
SWIDTH 1000 0
DWIDTH 16 0
BBX 16 16 0 -2
BITMAP
2000
213f
3e08
2090
3fbf
0921
123f
3c21
08bf
7fa1
1c3f
2a00
4912
0821
0000
0000
ENDCHAR
STARTCHAR ch-73
ENCODING 73
SWIDTH 1000 0
DWIDTH 16 0
BBX 16 16 0 -2
BITMAP
087e
1408
2210
417e
3e42
087e
0842
3e42
087e
0842
2a42
1c7e
0824
7f42
0000
0000
ENDCHAR
STARTCHAR ch-74
ENCODING 74
SWIDTH 1000 0
DWIDTH 16 0
BBX 16 16 0 -2
BITMAP
0800
103f
3f08
6110
3f3f
2021
3f3f
2121
3f3f
0421
7fa1
043f
0412
0421
0000
0000
ENDCHAR
STARTCHAR ch-76
ENCODING 76
SWIDTH 1000 0
DWIDTH 16 0
BBX 16 16 0 -2
BITMAP
0204
3f7e
2208
3e10
227e
3e42
007e
7f42
087e
2f42
287e
3824
2842
47ff
0000
0000
ENDCHAR
STARTCHAR ch-77
ENCODING 77
SWIDTH 1000 0
DWIDTH 16 0
BBX 16 16 0 -2
BITMAP
047f
3f88
2090
483e
0f22
113e
2a22
0c3e
1222
3fa2
513e
1114
1f23
1041
0000
0000
ENDCHAR
STARTCHAR ch-78
ENCODING 78
SWIDTH 1000 0
DWIDTH 16 0
BBX 16 16 0 -2
BITMAP
3bbf
2a88
2a90
3bbe
0022
1f3e
0022
7ffe
1022
1f22
013e
0114
0a23
04c1
0000
0000
ENDCHAR
STARTCHAR ch-79
ENCODING 79
SWIDTH 1000 0
DWIDTH 16 0
BBX 16 16 0 -2
BITMAP
0802
047f
3f88
1110
0a7e
3fc2
247e
2942
227e
2542
227e
2424
4843
1081
0000
0000
ENDCHAR
STARTCHAR ch-80
ENCODING 80
SWIDTH 1000 0
DWIDTH 16 0
BBX 16 16 0 -2
BITMAP
7fdf
4448
3f9f
0411
3f91
249f
3f91
2491
3f9f
0411
7fd1
041f
040a
0411
0000
0000
ENDCHAR
STARTCHAR ch-81
ENCODING 81
SWIDTH 1000 0
DWIDTH 16 0
BBX 16 16 0 -2
BITMAP
00df
0088
3fdf
2091
2e91
209f
2eb1
2ad1
2e9f
2191
2291
2c9f
40aa
0051
0000
0000
ENDCHAR
STARTCHAR ch-82
ENCODING 82
SWIDTH 1000 0
DWIDTH 16 0
BBX 16 16 0 -2
BITMAP
3f9f
2488
3f9f
2491
3f91
249f
0411
7fd1
445f
4551
5f51
405f
404a
40d1
0000
0000
ENDCHAR
STARTCHAR ch-83
ENCODING 83
SWIDTH 1000 0
DWIDTH 16 0
BBX 16 16 0 -2
BITMAP
0402
24bf
2490
3fbe
0022
7ffe
0422
3fbe
2aa2
2aa2
2abe
2a94
21a3
0041
0000
0000
ENDCHAR
STARTCHAR ch-87
ENCODING 87
SWIDTH 1000 0
DWIDTH 16 0
BBX 16 16 0 -2
BITMAP
041f
2488
249f
3f91
0011
3f9f
0011
3f91
209f
3f91
0011
111f
0a0a
7fd1
0000
0000
ENDCHAR
STARTCHAR ch-88
ENCODING 88
SWIDTH 1000 0
DWIDTH 16 0
BBX 16 16 0 -2
BITMAP
0102
3fbf
2208
2410
2fbf
28a1
2fbf
28a1
2fbf
2221
2abf
2a80
2a92
4221
0000
0000
ENDCHAR
STARTCHAR ch-89
ENCODING 89
SWIDTH 1000 0
DWIDTH 16 0
BBX 16 16 0 -2
BITMAP
1f7f
0a08
0410
0a3e
3ba2
2abe
1122
2abe
0422
7ffe
1610
2594
44a3
0441
0000
0000
ENDCHAR
STARTCHAR ch-91
ENCODING 91
SWIDTH 1000 0
DWIDTH 16 0
BBX 16 16 0 -2
BITMAP
08ff
7f10
0820
3e7e
2242
3e7e
2242
3e7e
2242
3e42
227e
7f14
1422
2241
0000
0000
ENDCHAR
STARTCHAR ch-92
ENCODING 92
SWIDTH 1000 0
DWIDTH 16 0
BBX 16 16 0 -2
BITMAP
113f
3f88
1110
3fbf
1121
7fff
0421
3fbf
24a1
3fa1
24bf
7fc4
208a
2391
0000
0000
ENDCHAR
STARTCHAR ch-93
ENCODING 93
SWIDTH 1000 0
DWIDTH 16 0
BBX 16 16 0 -2
BITMAP
1f1f
1108
171f
1511
7fd1
405f
5f51
1111
1f1f
1111
1f11
111f
110a
1311
0000
0000
ENDCHAR
STARTCHAR ch-94
ENCODING 94
SWIDTH 1000 0
DWIDTH 16 0
BBX 16 16 0 -2
BITMAP
0802
497f
2a08
7f10
087f
1c41
2a7f
4941
0a7f
7f41
087f
1414
2222
4141
0000
0000
ENDCHAR
STARTCHAR ch-95
ENCODING 95
SWIDTH 1000 0
DWIDTH 16 0
BBX 16 16 0 -2
BITMAP
7bdf
2948
5adf
2951
1691
091f
1291
2451
493f
0211
0c91
011f
020a
1c11
0000
0000
ENDCHAR
STARTCHAR ch-96
ENCODING 96
SWIDTH 1000 0
DWIDTH 16 0
BBX 16 16 0 -2
BITMAP
3f9f
0a08
3f9f
2a91
2a91
3f9f
0011
1f11
001f
7fd1
1511
249f
444a
0c11
0000
0000
ENDCHAR
STARTCHAR ch-98
ENCODING 98
SWIDTH 1000 0
DWIDTH 16 0
BBX 16 16 0 -2
BITMAP
111f
7fc8
111f
1111
1f11
041f
7fd1
4451
555f
5551
6ed1
445f
444a
40d1
0000
0000
ENDCHAR
STARTCHAR ch-99
ENCODING 99
SWIDTH 1000 0
DWIDTH 16 0
BBX 16 16 0 -2
BITMAP
011f
0148
3fdf
2911
2d11
291f
3f11
2951
3d5f
2991
3f11
2b5f
4cca
0851
0000
0000
ENDCHAR
STARTCHAR ch-100
ENCODING 100
SWIDTH 1000 0
DWIDTH 16 0
BBX 16 16 0 -2
BITMAP
041f
1f08
041f
3f91
1111
7fdf
1111
7fd1
001f
7fd1
1211
121f
124a
63d1
0000
0000
ENDCHAR
STARTCHAR ch-101
ENCODING 101
SWIDTH 1000 0
DWIDTH 16 0
BBX 16 16 0 -2
BITMAP
1f7f
1108
1f10
113e
1f22
043e
7fe2
1f3e
1122
1f22
043e
1514
24a3
0c41
0000
0000
ENDCHAR
STARTCHAR ch-103
ENCODING 103
SWIDTH 1000 0
DWIDTH 16 0
BBX 16 16 0 -2
BITMAP
0e02
303f
3f88
2090
3fbf
2421
2fbf
3a21
2fbf
2a21
2fbf
2a12
4fa1
0821
0000
0000
ENDCHAR
STARTCHAR ch-105
ENCODING 105
SWIDTH 1000 0
DWIDTH 16 0
BBX 16 16 0 -2
BITMAP
041f
0a08
111f
2091
5f51
001f
3b91
2a91
2a9f
3b91
0011
111f
2a8a
4451
0000
0000
ENDCHAR
STARTCHAR ch-106
ENCODING 106
SWIDTH 1000 0
DWIDTH 16 0
BBX 16 16 0 -2
BITMAP
041f
1788
1410
7fdf
0151
3fdf
2111
3d11
291f
3d51
3d91
2d5f
4aca
1051
0000
0000
ENDCHAR
STARTCHAR ch-107
ENCODING 107
SWIDTH 1000 0
DWIDTH 16 0
BBX 16 16 0 -2
BITMAP
0800
043f
7fc4
3f88
2ebf
2aa1
2ebf
3fa1
1f3f
1121
1f21
113f
1f12
3fa1
0000
0000
ENDCHAR
STARTCHAR ch-111
ENCODING 111
SWIDTH 1000 0
DWIDTH 16 0
BBX 16 16 0 -2
BITMAP
0000
3fbf
2088
3f90
20bf
3fa1
113f
2661
7bbf
1121
267f
7fcc
4a52
4a61
0000
0000
ENDCHAR
STARTCHAR ch-112
ENCODING 112
SWIDTH 1000 0
DWIDTH 16 0
BBX 16 16 0 -2
BITMAP
243f
2710
7fbf
143d
253d
063f
0821
1ffc
3ffc
5084
1ffc
0480
7fff
0080
0000
0000
ENDCHAR
STARTCHAR ch-113
ENCODING 113
SWIDTH 1000 0
DWIDTH 16 0
BBX 16 16 0 -2
BITMAP
0400
073f
7fc8
4410
5fbf
47a1
4fbf
4aa1
4fbf
4aa1
4fbf
5fc4
554a
7ff1
0000
0000
ENDCHAR
STARTCHAR ch-114
ENCODING 114
SWIDTH 1000 0
DWIDTH 16 0
BBX 16 16 0 -2
BITMAP
2a3f
1408
2210
2a3f
1421
223f
4121
7fbf
1021
7fa1
5ebf
5284
5e8a
7f91
0000
0000
ENDCHAR
STARTCHAR ch-115
ENCODING 115
SWIDTH 1000 0
DWIDTH 16 0
BBX 16 16 0 -2
BITMAP
7fbf
1108
1f10
1f3f
1121
7fbf
0121
7fff
3ba1
3ba1
2abf
7fd2
08a1
08c1
0000
0000
ENDCHAR
STARTCHAR ch-116
ENCODING 116
SWIDTH 1000 0
DWIDTH 16 0
BBX 16 16 0 -2
BITMAP
117f
7fc8
3bbe
2aa2
3bbe
1222
1fa2
323e
5fa2
1222
1fbe
1214
1fa3
1041
0000
0000
ENDCHAR
STARTCHAR ch-168
ENCODING 168
SWIDTH 1000 0
DWIDTH 16 0
BBX 16 16 0 -2
BITMAP
3ffc
2004
2014
2fe4
2084
2084
27f4
2494
2494
27f4
2085
2095
2ff3
4009
0000
0000
ENDCHAR
STARTCHAR ch-169
ENCODING 169
SWIDTH 1000 0
DWIDTH 16 0
BBX 16 16 0 -2
BITMAP
7fc0
4041
4142
5e44
4459
5f42
5544
5559
5f42
4444
4458
4541
5f41
417f
0000
0000
ENDCHAR
STARTCHAR ch-172
ENCODING 172
SWIDTH 1000 0
DWIDTH 16 0
BBX 16 16 0 -2
BITMAP
7fc0
415f
5e52
4452
445f
5f42
5546
554a
5f52
4442
4544
5f40
4141
407f
0000
0000
ENDCHAR
STARTCHAR ch-173
ENCODING 173
SWIDTH 1000 0
DWIDTH 16 0
BBX 16 16 0 -2
BITMAP
7fc4
4044
4147
5e44
4444
5f5f
5551
5551
5f51
44df
7fd1
40c0
4041
007f
0000
0000
ENDCHAR
STARTCHAR ch-174
ENCODING 174
SWIDTH 1000 0
DWIDTH 16 0
BBX 16 16 0 -2
BITMAP
7f90
40bf
4281
7cbd
48a5
7ea5
6abd
6aa1
7ea6
49a1
7fbf
4180
4081
00ff
0000
0000
ENDCHAR
STARTCHAR ch-175
ENCODING 175
SWIDTH 1000 0
DWIDTH 16 0
BBX 16 16 0 -2
BITMAP
1002
13ff
1202
7e72
2a22
2afa
2aaa
2aaa
2afa
2a22
7e2a
02fa
040a
0001
0000
0000
ENDCHAR
STARTCHAR ch-177
ENCODING 177
SWIDTH 1000 0
DWIDTH 16 0
BBX 16 16 0 -2
BITMAP
0040
7fe4
4044
5f48
4451
5f5f
5540
5f5f
4451
4551
5f5f
4140
4021
401f
0000
0000
ENDCHAR
STARTCHAR ch-178
ENCODING 178
SWIDTH 1000 0
DWIDTH 16 0
BBX 16 16 0 -2
BITMAP
7ff9
4141
4545
7975
4955
7f95
6b55
6b55
7f15
4921
4bc3
7f00
4101
41ff
0000
0000
ENDCHAR
STARTCHAR ch-179
ENCODING 179
SWIDTH 1000 0
DWIDTH 16 0
BBX 16 16 0 -2
BITMAP
0000
7fc0
4040
4747
5c5c
4444
5f5f
5544
5f5f
4451
445f
4540
5f20
401f
0000
0000
ENDCHAR
STARTCHAR ch-182
ENCODING 182
SWIDTH 1000 0
DWIDTH 16 0
BBX 16 16 0 -2
BITMAP
7fde
4052
5f5e
4452
5f5e
5552
555e
5f52
447f
4552
5f61
4140
4040
003f
0000
0000
ENDCHAR
STARTCHAR ch-184
ENCODING 184
SWIDTH 1000 0
DWIDTH 16 0
BBX 16 16 0 -2
BITMAP
3f80
20be
22aa
3cbe
24aa
3fbe
3580
3fa5
24d5
2690
3f8f
2080
2080
407f
0000
0000
ENDCHAR
STARTCHAR ch-186
ENCODING 186
SWIDTH 1000 0
DWIDTH 16 0
BBX 16 16 0 -2
BITMAP
007e
7f42
417e
4342
7d7e
4900
7fff
6b20
7f3f
4955
4b29
7f52
4301
01ff
0000
0000
ENDCHAR
STARTCHAR ch-187
ENCODING 187
SWIDTH 1000 0
DWIDTH 16 0
BBX 16 16 0 -2
BITMAP
10fe
1082
3e86
52fa
2a92
14fe
78d6
20d6
7efe
0892
7e96
08be
4a86
7f01
0000
0000
ENDCHAR
STARTCHAR ch-188
ENCODING 188
SWIDTH 1000 0
DWIDTH 16 0
BBX 16 16 0 -2
BITMAP
7f08
412b
5d49
496b
4949
7f7f
6b3f
7f22
4914
4b08
7f14
4322
4080
007f
0000
0000
ENDCHAR
STARTCHAR ch-189
ENCODING 189
SWIDTH 1000 0
DWIDTH 16 0
BBX 16 16 0 -2
BITMAP
10fe
5282
5286
7efa
0092
7efe
00d6
7ed6
42fe
7e92
0096
24be
1907
7e01
0000
0000
ENDCHAR
STARTCHAR ch-190
ENCODING 190
SWIDTH 1000 0
DWIDTH 16 0
BBX 16 16 0 -2
BITMAP
7f7f
4152
4724
7958
49e7
7f08
6b7f
7f49
497f
4b08
7f09
417f
4100
40ff
0000
0000
ENDCHAR
STARTCHAR ch-191
ENCODING 191
SWIDTH 1000 0
DWIDTH 16 0
BBX 16 16 0 -2
BITMAP
7efe
4882
4886
7efa
4892
7efe
48d6
48d6
7ffe
2592
2596
5bbe
0102
0e01
0000
0000
ENDCHAR
STARTCHAR ch-192
ENCODING 192
SWIDTH 1000 0
DWIDTH 16 0
BBX 16 16 0 -2
BITMAP
3f10
2127
2141
3f49
2551
3f76
3500
3f7f
2549
277f
3f49
217f
2100
40ff
0000
0000
ENDCHAR
STARTCHAR ch-193
ENCODING 193
SWIDTH 1000 0
DWIDTH 16 0
BBX 16 16 0 -2
BITMAP
777f
3341
557f
3349
5549
117f
226b
107f
3f49
214b
3f5f
2141
3f81
2101
0000
0000
ENDCHAR
STARTCHAR ch-194
ENCODING 194
SWIDTH 1000 0
DWIDTH 16 0
BBX 16 16 0 -2
BITMAP
00ff
7f55
4133
4355
5d33
4908
7f14
6b2a
6b51
7f28
4b14
4b29
3f11
01ff
0000
0000
ENDCHAR
STARTCHAR ch-196
ENCODING 196
SWIDTH 1000 0
DWIDTH 16 0
BBX 16 16 0 -2
BITMAP
7ffe
1482
7f82
55ba
5592
7ffe
00d6
3ed6
7ffe
1c91
2a95
49bd
0905
0800
0000
0000
ENDCHAR
STARTCHAR ch-198
ENCODING 198
SWIDTH 1000 0
DWIDTH 16 0
BBX 16 16 0 -2
BITMAP
0a7e
0942
7f42
087e
1452
227e
4176
0076
337e
2ad2
77d6
227f
2283
5501
0000
0000
ENDCHAR
STARTCHAR ch-201
ENCODING 201
SWIDTH 1000 0
DWIDTH 16 0
BBX 16 16 0 -2
BITMAP
3f08
217f
2108
3f55
2522
25ff
3f22
353e
3522
3f3e
252c
274b
5f08
00ff
0000
0000
ENDCHAR
STARTCHAR ch-203
ENCODING 203
SWIDTH 1000 0
DWIDTH 16 0
BBX 16 16 0 -2
BITMAP
7e00
4277
4622
7a77
4a22
4a77
7e00
6aaa
7ea3
4a24
4a19
7e67
4200
01ff
0000
0000
ENDCHAR
STARTCHAR ch-204
ENCODING 204
SWIDTH 1000 0
DWIDTH 16 0
BBX 16 16 0 -2
BITMAP
227e
7f42
2246
777a
5552
777e
2256
7f56
227e
3f53
2253
3f93
2215
3f7c
0000
0000
ENDCHAR
STARTCHAR ch-219
ENCODING 219
SWIDTH 1000 0
DWIDTH 16 0
BBX 16 16 0 -2
BITMAP
1ff8
008a
028c
3c8a
0888
0887
0880
7ff9
088a
088c
088a
1089
2085
4083
0000
0000
ENDCHAR
STARTCHAR ch-223
ENCODING 223
SWIDTH 1000 0
DWIDTH 16 0
BBX 16 16 0 -2
BITMAP
01c0
0220
0410
0888
1084
27f2
4411
07f0
0410
07f0
0408
0450
0520
0e1e
0000
0000
ENDCHAR
STARTCHAR ch-226
ENCODING 226
SWIDTH 1000 0
DWIDTH 16 0
BBX 16 16 0 -2
BITMAP
1c7c
2244
5144
0844
3e44
2244
3e44
2244
3e44
2244
2244
2445
2a45
7187
0000
0000
ENDCHAR
STARTCHAR ch-227
ENCODING 227
SWIDTH 1000 0
DWIDTH 16 0
BBX 16 16 0 -2
BITMAP
0800
1402
22ff
4908
3e08
2208
3e08
2208
3e08
2808
2408
2a08
3128
6090
0000
0000
ENDCHAR
STARTCHAR ch-229
ENCODING 229
SWIDTH 1000 0
DWIDTH 16 0
BBX 16 16 0 -2
BITMAP
0c01
127e
2910
4890
3e10
2212
3eff
2210
3e10
2810
2410
2a11
3111
608f
0000
0000
ENDCHAR
STARTCHAR ch-231
ENCODING 231
SWIDTH 1000 0
DWIDTH 16 0
BBX 16 16 0 -2
BITMAP
1020
1050
1088
1d47
2622
25fc
2504
55fc
0904
09fc
1114
2148
4186
0102
0000
0000
ENDCHAR
STARTCHAR ch-233
ENCODING 233
SWIDTH 1000 0
DWIDTH 16 0
BBX 16 16 0 -2
BITMAP
0c08
1208
297f
4488
3f49
2149
3f49
2149
3f7f
2008
2408
2209
2509
3887
0000
0000
ENDCHAR
STARTCHAR ch-234
ENCODING 234
SWIDTH 1000 0
DWIDTH 16 0
BBX 16 16 0 -2
BITMAP
0c00
1206
2138
4488
3f08
2108
3f08
217f
3f08
2808
2408
2208
2508
38be
0000
0000
ENDCHAR
STARTCHAR ch-235
ENCODING 235
SWIDTH 1000 0
DWIDTH 16 0
BBX 16 16 0 -2
BITMAP
0c01
127e
2908
4888
3e08
227f
3e08
2208
3e08
2008
2808
2414
2a22
7141
0000
0000
ENDCHAR
STARTCHAR ch-237
ENCODING 237
SWIDTH 1000 0
DWIDTH 16 0
BBX 16 16 0 -2
BITMAP
0420
0a20
113f
2ec0
4008
1f08
1108
1f7f
1109
1f09
1211
1521
1841
3086
0000
0000
ENDCHAR
STARTCHAR ch-239
ENCODING 239
SWIDTH 1000 0
DWIDTH 16 0
BBX 16 16 0 -2
BITMAP
0c7f
1240
2940
44df
3f41
2151
3f51
214a
3f4a
204a
2844
244a
2a4a
3091
0000
0000
ENDCHAR
STARTCHAR ch-242
ENCODING 242
SWIDTH 1000 0
DWIDTH 16 0
BBX 16 16 0 -2
BITMAP
0c20
1220
293f
44a9
3f49
210a
3f08
2108
3f08
2808
2408
2214
2522
38c1
0000
0000
ENDCHAR
STARTCHAR ch-244
ENCODING 244
SWIDTH 1000 0
DWIDTH 16 0
BBX 16 16 0 -2
BITMAP
0810
1410
2220
4942
3efe
2201
3e00
22fe
3e82
2082
2282
2482
2afe
7182
0000
0000
ENDCHAR
STARTCHAR ch-246
ENCODING 246
SWIDTH 1000 0
DWIDTH 16 0
BBX 16 16 0 -2
BITMAP
0800
1400
2224
49a2
3ea1
22a4
3ea4
22a8
3eb2
2021
2820
2460
2aa1
301f
0000
0000
ENDCHAR
STARTCHAR ch-249
ENCODING 249
SWIDTH 1000 0
DWIDTH 16 0
BBX 16 16 0 -2
BITMAP
1040
289f
4509
1109
7d29
4529
7d29
4529
7dee
4028
5028
4828
5448
6088
0000
0000
ENDCHAR
STARTCHAR ch-250
ENCODING 250
SWIDTH 1000 0
DWIDTH 16 0
BBX 16 16 0 -2
BITMAP
0420
173c
1421
7fbf
0080
0140
02a0
07f0
0c98
17f4
2402
04d0
0520
0618
0000
0000
ENDCHAR
STARTCHAR ch-252
ENCODING 252
SWIDTH 1000 0
DWIDTH 16 0
BBX 16 16 0 -2
BITMAP
087f
1401
2201
497d
3e01
227d
3e45
2245
3e45
207d
2201
2401
2a02
718c
0000
0000
ENDCHAR
STARTCHAR ch-253
ENCODING 253
SWIDTH 1000 0
DWIDTH 16 0
BBX 16 16 0 -2
BITMAP
0840
147f
2281
4901
3e79
2249
3e49
2279
3e45
2042
2240
2440
2a41
713f
0000
0000
ENDCHAR
STARTCHAR ch-254
ENCODING 254
SWIDTH 1000 0
DWIDTH 16 0
BBX 16 16 0 -2
BITMAP
0820
1420
223f
7f48
22ff
3e49
2249
3e49
2049
2249
2a4b
2408
2a08
7108
0000
0000
ENDCHAR
STARTCHAR ch-256
ENCODING 256
SWIDTH 1000 0
DWIDTH 16 0
BBX 16 16 0 -2
BITMAP
0822
1422
227f
4922
3e22
2200
3e22
2222
3e22
2022
2814
2408
2a14
7063
0000
0000
ENDCHAR
STARTCHAR ch-258
ENCODING 258
SWIDTH 1000 0
DWIDTH 16 0
BBX 16 16 0 -2
BITMAP
0802
14fc
2210
4910
3efe
2210
3e10
22fe
3e82
2082
2482
2682
28fe
7082
0000
0000
ENDCHAR
STARTCHAR ch-259
ENCODING 259
SWIDTH 1000 0
DWIDTH 16 0
BBX 16 16 0 -2
BITMAP
0820
1410
220a
497f
0824
3e42
2281
3e42
2242
3e24
2818
2418
2a24
30c3
0000
0000
ENDCHAR
STARTCHAR ch-261
ENCODING 261
SWIDTH 1000 0
DWIDTH 16 0
BBX 16 16 0 -2
BITMAP
0882
1444
2228
49fe
0844
3e44
2244
3eff
2244
3e44
2844
2444
2a84
3004
0000
0000
ENDCHAR
STARTCHAR ch-263
ENCODING 263
SWIDTH 1000 0
DWIDTH 16 0
BBX 16 16 0 -2
BITMAP
11ff
2901
4501
117d
7d01
457d
7d45
4545
7d7d
4145
5101
4901
5501
6103
0000
0000
ENDCHAR
STARTCHAR ch-264
ENCODING 264
SWIDTH 1000 0
DWIDTH 16 0
BBX 16 16 0 -2
BITMAP
047f
3e41
0088
0414
3ea2
0141
0220
0490
0ff8
1494
27f2
4451
04a0
071c
0000
0000
ENDCHAR
STARTCHAR ch-265
ENCODING 265
SWIDTH 1000 0
DWIDTH 16 0
BBX 16 16 0 -2
BITMAP
0810
1420
2242
49ff
0882
3e82
22ba
3eaa
22aa
3eaa
28ba
2482
2a8a
3004
0000
0000
ENDCHAR
STARTCHAR ch-266
ENCODING 266
SWIDTH 1000 0
DWIDTH 16 0
BBX 16 16 0 -2
BITMAP
0410
3ffe
0080
3ffe
0080
7fff
0490
0ff8
1494
27f2
4489
0450
0520
061c
0000
0000
ENDCHAR
STARTCHAR ch-268
ENCODING 268
SWIDTH 1000 0
DWIDTH 16 0
BBX 16 16 0 -2
BITMAP
0800
14fe
2244
4944
087c
3e44
2244
3e7c
2244
3e44
29ff
2404
2a04
3004
0000
0000
ENDCHAR
STARTCHAR ch-272
ENCODING 272
SWIDTH 1000 0
DWIDTH 16 0
BBX 16 16 0 -2
BITMAP
0f7e
0844
1f28
2210
14a8
0946
32a2
07f8
1c17
67f2
0410
07f0
04e0
0618
0000
0000
ENDCHAR
STARTCHAR ch-273
ENCODING 273
SWIDTH 1000 0
DWIDTH 16 0
BBX 16 16 0 -2
BITMAP
0810
14fe
2a10
49ff
3d01
257d
3c04
2418
3c10
21ff
2810
2410
2b10
3030
0000
0000
ENDCHAR
STARTCHAR ch-274
ENCODING 274
SWIDTH 1000 0
DWIDTH 16 0
BBX 16 16 0 -2
BITMAP
0801
15fe
2200
7d11
008a
3c40
2448
3dff
2448
3c28
2810
2428
2a44
3383
0000
0000
ENDCHAR
STARTCHAR ch-275
ENCODING 275
SWIDTH 1000 0
DWIDTH 16 0
BBX 16 16 0 -2
BITMAP
0828
15ca
2249
5c48
01ff
3c48
2469
3c49
24ca
3d4c
2849
2c55
3243
2081
0000
0000
ENDCHAR
STARTCHAR ch-276
ENCODING 276
SWIDTH 1000 0
DWIDTH 16 0
BBX 16 16 0 -2
BITMAP
0814
1412
22fe
4910
3efe
2292
3e92
22fe
3e92
2892
24fe
2492
2a92
3096
0000
0000
ENDCHAR
STARTCHAR ch-277
ENCODING 277
SWIDTH 1000 0
DWIDTH 16 0
BBX 16 16 0 -2
BITMAP
0820
1442
2282
49fe
3c44
2482
3d41
247e
3c84
2024
2a28
2410
2a28
30c6
0000
0000
ENDCHAR
STARTCHAR ch-278
ENCODING 278
SWIDTH 1000 0
DWIDTH 16 0
BBX 16 16 0 -2
BITMAP
0800
14ff
2200
4900
3e7e
2242
3e42
2242
3e7e
2000
2881
2442
2a24
31ff
0000
0000
ENDCHAR
STARTCHAR ch-279
ENCODING 279
SWIDTH 1000 0
DWIDTH 16 0
BBX 16 16 0 -2
BITMAP
0810
15ff
2210
4910
3efe
2292
3e92
2292
3efe
2010
2854
2492
2b11
7010
0000
0000
ENDCHAR
STARTCHAR ch-280
ENCODING 280
SWIDTH 1000 0
DWIDTH 16 0
BBX 16 16 0 -2
BITMAP
0c08
1214
2522
44c1
3f3e
2108
3f08
217f
3f1c
202a
2449
2608
2908
3018
0000
0000
ENDCHAR
STARTCHAR ch-282
ENCODING 282
SWIDTH 1000 0
DWIDTH 16 0
BBX 16 16 0 -2
BITMAP
1822
2414
5208
0834
7eff
4220
7e7e
42a2
7e3e
4822
443e
4a22
514a
6004
0000
0000
ENDCHAR
STARTCHAR ch-283
ENCODING 283
SWIDTH 1000 0
DWIDTH 16 0
BBX 16 16 0 -2
BITMAP
18fe
2482
52fe
0882
7efe
4282
7e00
4288
7e88
50aa
48cc
4488
4a89
7067
0000
0000
ENDCHAR
STARTCHAR ch-286
ENCODING 286
SWIDTH 1000 0
DWIDTH 16 0
BBX 16 16 0 -2
BITMAP
0810
1412
227f
4912
0814
3f09
2117
3f14
217f
3f12
2414
2208
2515
3823
0000
0000
ENDCHAR
STARTCHAR ch-287
ENCODING 287
SWIDTH 1000 0
DWIDTH 16 0
BBX 16 16 0 -2
BITMAP
19ef
2529
42a5
10c6
7d29
4610
7c00
45ef
7d29
4129
40c6
48c6
5529
6211
0000
0000
ENDCHAR
STARTCHAR ch-289
ENCODING 289
SWIDTH 1000 0
DWIDTH 16 0
BBX 16 16 0 -2
BITMAP
0820
143e
2222
4942
3e04
2240
3e87
2281
3e81
28e7
2481
2681
29ff
7081
0000
0000
ENDCHAR
STARTCHAR ch-292
ENCODING 292
SWIDTH 1000 0
DWIDTH 16 0
BBX 16 16 0 -2
BITMAP
0810
1492
3254
4810
3c28
2444
3d83
2410
3c92
2054
2810
2428
2a44
3082
0000
0000
ENDCHAR
STARTCHAR ch-293
ENCODING 293
SWIDTH 1000 0
DWIDTH 16 0
BBX 16 16 0 -2
BITMAP
0220
7e3f
0220
7e3f
0220
7e3f
05e0
02a0
07f0
0c98
17f4
04d0
0520
0618
0000
0000
ENDCHAR
STARTCHAR ch-295
ENCODING 295
SWIDTH 1000 0
DWIDTH 16 0
BBX 16 16 0 -2
BITMAP
0801
15fe
3210
49ff
3c38
2454
3c92
2444
3dff
2844
2428
2a10
3028
61c7
0000
0000
ENDCHAR
STARTCHAR ch-296
ENCODING 296
SWIDTH 1000 0
DWIDTH 16 0
BBX 16 16 0 -2
BITMAP
0c10
1208
297f
4441
3f3e
2122
3f22
213e
3f20
243f
2221
2521
383f
2020
0000
0000
ENDCHAR
STARTCHAR ch-297
ENCODING 297
SWIDTH 1000 0
DWIDTH 16 0
BBX 16 16 0 -2
BITMAP
0810
1428
2244
4992
0011
3efe
2210
3e22
2244
3ef8
2012
2424
2c4a
3191
0000
0000
ENDCHAR
STARTCHAR ch-298
ENCODING 298
SWIDTH 1000 0
DWIDTH 16 0
BBX 16 16 0 -2
BITMAP
18fe
2410
4220
11ff
7d29
4529
7d2b
4410
7c10
41ff
4810
4828
5444
6183
0000
0000
ENDCHAR
STARTCHAR ch-299
ENCODING 299
SWIDTH 1000 0
DWIDTH 16 0
BBX 16 16 0 -2
BITMAP
19ff
2511
437d
1010
7cfe
4492
7cfe
4492
7cfe
4010
49ff
4810
5410
6210
0000
0000
ENDCHAR
STARTCHAR ch-300
ENCODING 300
SWIDTH 1000 0
DWIDTH 16 0
BBX 16 16 0 -2
BITMAP
180f
2489
4289
11e9
7c8f
4489
7c89
45ef
7d29
4129
4929
49e9
5409
6013
0000
0000
ENDCHAR
STARTCHAR ch-301
ENCODING 301
SWIDTH 1000 0
DWIDTH 16 0
BBX 16 16 0 -2
BITMAP
1880
25fe
4282
10fe
7c82
44fe
7c00
44fe
7c10
4010
40fe
4810
5410
61ff
0000
0000
ENDCHAR
STARTCHAR ch-302
ENCODING 302
SWIDTH 1000 0
DWIDTH 16 0
BBX 16 16 0 -2
BITMAP
3f90
0f4c
1193
2a24
1952
02a4
0ff8
1417
67f2
0410
07f4
0468
051c
0604
0000
0000
ENDCHAR
STARTCHAR ch-303
ENCODING 303
SWIDTH 1000 0
DWIDTH 16 0
BBX 16 16 0 -2
BITMAP
0020
183e
2464
4298
1010
7dff
4460
7c72
44ac
7d2c
405a
48a9
5448
6030
0000
0000
ENDCHAR
STARTCHAR ch-304
ENCODING 304
SWIDTH 1000 0
DWIDTH 16 0
BBX 16 16 0 -2
BITMAP
1840
2447
4280
1110
7c4f
44a2
7d92
4682
7c8a
40b2
40a2
4882
5486
6082
0000
0000
ENDCHAR
STARTCHAR ch-305
ENCODING 305
SWIDTH 1000 0
DWIDTH 16 0
BBX 16 16 0 -2
BITMAP
1840
245e
4282
11bf
7e80
44a0
7cbe
44c8
7c88
40bf
4088
4894
54a2
60c1
0000
0000
ENDCHAR
STARTCHAR ch-306
ENCODING 306
SWIDTH 1000 0
DWIDTH 16 0
BBX 16 16 0 -2
BITMAP
187e
2442
427e
1042
7c7e
4480
7cff
4491
7d11
40a9
40c5
4881
54f9
600e
0000
0000
ENDCHAR
STARTCHAR ch-307
ENCODING 307
SWIDTH 1000 0
DWIDTH 16 0
BBX 16 16 0 -2
BITMAP
187e
2442
427e
1042
7c7e
4400
7dff
4440
7cff
4129
4029
4829
5451
600e
0000
0000
ENDCHAR
STARTCHAR ch-309
ENCODING 309
SWIDTH 1000 0
DWIDTH 16 0
BBX 16 16 0 -2
BITMAP
18fe
2492
4292
18fe
7e92
42fe
7e00
43ff
7e92
5094
4888
4ca4
52c2
6081
0000
0000
ENDCHAR
STARTCHAR ch-314
ENCODING 314
SWIDTH 1000 0
DWIDTH 16 0
BBX 16 16 0 -2
BITMAP
0812
15ff
2210
48fe
3c92
24fe
3c92
24fe
3c92
2004
29ff
2444
2a24
700c
0000
0000
ENDCHAR
STARTCHAR ch-316
ENCODING 316
SWIDTH 1000 0
DWIDTH 16 0
BBX 16 16 0 -2
BITMAP
1840
24fe
4378
10fe
7c22
44aa
7c72
45fe
7c22
4072
48aa
4927
5423
6001
0000
0000
ENDCHAR
STARTCHAR ch-317
ENCODING 317
SWIDTH 1000 0
DWIDTH 16 0
BBX 16 16 0 -2
BITMAP
0840
14fe
2392
5e92
00fe
3c92
2492
3cfe
242c
3c2a
242e
2a49
3089
230f
0000
0000
ENDCHAR
STARTCHAR ch-318
ENCODING 318
SWIDTH 1000 0
DWIDTH 16 0
BBX 16 16 0 -2
BITMAP
0840
159f
2305
4945
0925
3d49
2592
3c00
24fe
3c92
28fe
2492
2a92
30fe
0000
0000
ENDCHAR
STARTCHAR ch-319
ENCODING 319
SWIDTH 1000 0
DWIDTH 16 0
BBX 16 16 0 -2
BITMAP
0890
1513
2311
5d11
01d7
3d11
2511
3dd7
2410
3cfe
2828
2410
2a28
30c6
0000
0000
ENDCHAR
STARTCHAR ch-321
ENCODING 321
SWIDTH 1000 0
DWIDTH 16 0
BBX 16 16 0 -2
BITMAP
1810
24fe
4210
11ff
7c20
4444
7cfe
4402
7c00
40fe
40aa
48aa
54aa
61ff
0000
0000
ENDCHAR
STARTCHAR ch-323
ENCODING 323
SWIDTH 1000 0
DWIDTH 16 0
BBX 16 16 0 -2
BITMAP
1044
29ff
4444
1000
7cfe
4482
7cfe
4482
7cfe
4010
41ff
4844
5482
6101
0000
0000
ENDCHAR
STARTCHAR ch-325
ENCODING 325
SWIDTH 1000 0
DWIDTH 16 0
BBX 16 16 0 -2
BITMAP
0802
147f
2a42
497e
3e42
227e
3eff
22a5
3eff
2000
247e
2224
2518
3867
0000
0000
ENDCHAR
STARTCHAR ch-327
ENCODING 327
SWIDTH 1000 0
DWIDTH 16 0
BBX 16 16 0 -2
BITMAP
1000
29ff
4500
113e
7d22
453e
7d00
4577
7d55
4155
4155
4977
5500
61ff
0000
0000
ENDCHAR
STARTCHAR ch-328
ENCODING 328
SWIDTH 1000 0
DWIDTH 16 0
BBX 16 16 0 -2
BITMAP
1084
2848
45fe
1020
7dfe
4420
7dfe
4420
7c40
40fc
4114
487e
5414
61fe
0000
0000
ENDCHAR
STARTCHAR ch-329
ENCODING 329
SWIDTH 1000 0
DWIDTH 16 0
BBX 16 16 0 -2
BITMAP
1844
25ff
5244
087c
3c10
24fe
3c92
24fe
3c10
20fe
2810
2cfe
3210
61ff
0000
0000
ENDCHAR
STARTCHAR ch-331
ENCODING 331
SWIDTH 1000 0
DWIDTH 16 0
BBX 16 16 0 -2
BITMAP
0810
14fe
3292
48fe
3c10
25ff
3cfe
2482
3cfe
2082
28fe
2482
2afe
3101
0000
0000
ENDCHAR
STARTCHAR ch-332
ENCODING 332
SWIDTH 1000 0
DWIDTH 16 0
BBX 16 16 0 -2
BITMAP
11ef
2929
45ef
2108
7d29
44e7
7c44
45ff
7c44
4044
41ff
4844
5482
6301
0000
0000
ENDCHAR
STARTCHAR ch-334
ENCODING 334
SWIDTH 1000 0
DWIDTH 16 0
BBX 16 16 0 -2
BITMAP
0810
15ff
3210
48fe
3c00
24fe
3c82
24fe
3c28
21ff
2828
24fe
2a82
30fe
0000
0000
ENDCHAR
STARTCHAR ch-336
ENCODING 336
SWIDTH 1000 0
DWIDTH 16 0
BBX 16 16 0 -2
BITMAP
0810
14fe
3210
48fe
3dff
2501
3d7d
2400
3c7c
2044
287c
2c44
3228
61ff
0000
0000
ENDCHAR
STARTCHAR ch-337
ENCODING 337
SWIDTH 1000 0
DWIDTH 16 0
BBX 16 16 0 -2
BITMAP
1124
2a68
43be
7924
02aa
7bbe
48a2
7fff
4922
7914
4288
5455
5823
6401
0000
0000
ENDCHAR
STARTCHAR ch-338
ENCODING 338
SWIDTH 1000 0
DWIDTH 16 0
BBX 16 16 0 -2
BITMAP
1010
28fe
4410
11ff
7c44
45ff
7c44
45ff
7c00
41ff
5048
4849
5449
6187
0000
0000
ENDCHAR
STARTCHAR ch-339
ENCODING 339
SWIDTH 1000 0
DWIDTH 16 0
BBX 16 16 0 -2
BITMAP
1010
2892
4454
21ff
7d01
457d
7c44
447c
7c10
41ff
4054
4892
5511
6010
0000
0000
ENDCHAR
STARTCHAR ch-340
ENCODING 340
SWIDTH 1000 0
DWIDTH 16 0
BBX 16 16 0 -2
BITMAP
0080
3fff
127e
3cc8
097e
3e48
04ff
32a0
07f8
1c97
67f2
0520
04c0
0638
0000
0000
ENDCHAR
STARTCHAR ch-341
ENCODING 341
SWIDTH 1000 0
DWIDTH 16 0
BBX 16 16 0 -2
BITMAP
3e1c
2210
3efe
0092
7ffc
3ebe
02a8
0d4e
07f8
1c97
67f2
0520
04c0
0e7c
0000
0000
ENDCHAR
STARTCHAR ch-342
ENCODING 342
SWIDTH 1000 0
DWIDTH 16 0
BBX 16 16 0 -2
BITMAP
1810
245e
4250
21ff
7c05
45ff
7d04
45fc
7d25
4125
416d
49ae
5635
62cb
0000
0000
ENDCHAR
STARTCHAR ch-343
ENCODING 343
SWIDTH 1000 0
DWIDTH 16 0
BBX 16 16 0 -2
BITMAP
109f
27e9
7a2a
13e9
7e29
0bed
128a
63e0
07f0
0c98
17f4
24d2
0520
0618
0000
0000
ENDCHAR
STARTCHAR ch-344
ENCODING 344
SWIDTH 1000 0
DWIDTH 16 0
BBX 16 16 0 -2
BITMAP
0810
15ff
3200
48fe
3cba
24aa
3cba
24fe
3c7c
2044
287c
2444
2a7c
31ff
0000
0000
ENDCHAR
STARTCHAR ch-345
ENCODING 345
SWIDTH 1000 0
DWIDTH 16 0
BBX 16 16 0 -2
BITMAP
0810
15ff
3254
49ff
3c44
24fe
3c82
24fe
3c82
20fe
2882
24fe
2a44
3182
0000
0000
ENDCHAR
STARTCHAR ch-347
ENCODING 347
SWIDTH 1000 0
DWIDTH 16 0
BBX 16 16 0 -2
BITMAP
0844
14ff
3244
49ff
3d01
2478
3cfc
2422
3cd4
2038
29d4
2432
2bd3
3030
0000
0000
ENDCHAR
STARTCHAR ch-348
ENCODING 348
SWIDTH 1000 0
DWIDTH 16 0
BBX 16 16 0 -2
BITMAP
3fff
2f8a
2a89
2fbe
2f94
2aa2
49c1
02a0
07f0
0c98
37f6
04d0
0520
0e1c
0000
0000
ENDCHAR
STARTCHAR ch-350
ENCODING 350
SWIDTH 1000 0
DWIDTH 16 0
BBX 16 16 0 -2
BITMAP
08fc
1508
33ff
4101
3dff
2484
3cf7
24ff
3d08
21ff
2911
25ff
2a2a
30cf
0000
0000
ENDCHAR
STARTCHAR ch-351
ENCODING 351
SWIDTH 1000 0
DWIDTH 16 0
BBX 16 16 0 -2
BITMAP
0810
15ff
33ef
4929
3def
2444
3dff
2444
3dff
2044
29ff
258a
2a84
30cb
0000
0000
ENDCHAR
STARTCHAR ch-353
ENCODING 353
SWIDTH 1000 0
DWIDTH 16 0
BBX 16 16 0 -2
BITMAP
094a
17ef
3242
49ef
3d4a
2463
3cfe
2482
3cfe
2882
24fe
2a82
30fe
6101
0000
0000
ENDCHAR
STARTCHAR ch-406
ENCODING 406
SWIDTH 1000 0
DWIDTH 16 0
BBX 16 16 0 -2
BITMAP
0410
0220
7fff
0100
0208
0ffc
0808
0ff8
0808
0ff8
0808
0808
0ff8
0808
0000
0000
ENDCHAR
STARTCHAR ch-407
ENCODING 407
SWIDTH 1000 0
DWIDTH 16 0
BBX 16 16 0 -2
BITMAP
1042
1024
11ff
7e20
1240
127e
1242
127e
1242
127e
1242
227e
4200
01ff
0000
0000
ENDCHAR
STARTCHAR ch-408
ENCODING 408
SWIDTH 1000 0
DWIDTH 16 0
BBX 16 16 0 -2
BITMAP
220c
140a
7eff
0808
1008
3ee9
22a9
3eaa
22ea
3e0c
2269
2395
3e23
2241
0000
0000
ENDCHAR
STARTCHAR ch-409
ENCODING 409
SWIDTH 1000 0
DWIDTH 16 0
BBX 16 16 0 -2
BITMAP
0018
1fe0
0080
0082
7fff
02a0
0498
1887
67f2
0410
07f0
0410
07f0
0410
0000
0000
ENDCHAR
STARTCHAR ch-412
ENCODING 412
SWIDTH 1000 0
DWIDTH 16 0
BBX 16 16 0 -2
BITMAP
017f
7e41
0841
7f7f
0840
1c50
6b50
0850
085e
3e50
2250
3e51
2291
3e1f
0000
0000
ENDCHAR
STARTCHAR ch-413
ENCODING 413
SWIDTH 1000 0
DWIDTH 16 0
BBX 16 16 0 -2
BITMAP
0108
7e04
0811
7f11
0851
1c50
6b52
0852
0852
7f12
4114
7f18
4131
7f4f
0000
0000
ENDCHAR
STARTCHAR ch-414
ENCODING 414
SWIDTH 1000 0
DWIDTH 16 0
BBX 16 16 0 -2
BITMAP
0108
3e7f
0808
08ff
7f81
1c81
2a3e
4904
0008
3e7f
2204
3e04
2224
3e18
0000
0000
ENDCHAR
STARTCHAR ch-417
ENCODING 417
SWIDTH 1000 0
DWIDTH 16 0
BBX 16 16 0 -2
BITMAP
0214
3c14
0877
7f14
2a14
4977
0814
3e14
2277
2214
3e14
2214
2224
3e44
0000
0000
ENDCHAR
STARTCHAR ch-419
ENCODING 419
SWIDTH 1000 0
DWIDTH 16 0
BBX 16 16 0 -2
BITMAP
0210
3cfe
0828
7f44
2a92
497d
0854
3e7c
2254
227c
3e10
2210
2210
3e0f
0000
0000
ENDCHAR
STARTCHAR ch-421
ENCODING 421
SWIDTH 1000 0
DWIDTH 16 0
BBX 16 16 0 -2
BITMAP
0180
7eff
0900
7f7e
1c42
2a7e
4942
087e
3e40
22fe
3ea8
2210
3e28
22c7
0000
0000
ENDCHAR
STARTCHAR ch-422
ENCODING 422
SWIDTH 1000 0
DWIDTH 16 0
BBX 16 16 0 -2
BITMAP
0122
7e14
087f
7f14
1c7f
2a15
497f
0815
3e7f
2214
3e36
2255
3e14
2214
0000
0000
ENDCHAR
STARTCHAR ch-423
ENCODING 423
SWIDTH 1000 0
DWIDTH 16 0
BBX 16 16 0 -2
BITMAP
0100
7e7c
0854
7f54
1c6c
2a44
497c
3e00
22fe
22aa
3eaa
22aa
22aa
3fff
0000
0000
ENDCHAR
STARTCHAR ch-424
ENCODING 424
SWIDTH 1000 0
DWIDTH 16 0
BBX 16 16 0 -2
BITMAP
083c
7f25
0847
7f7e
2922
3f1c
27e3
4080
3ffe
0888
17f4
2412
47f1
07f0
0000
0000
ENDCHAR
STARTCHAR ch-427
ENCODING 427
SWIDTH 1000 0
DWIDTH 16 0
BBX 16 16 0 -2
BITMAP
07e0
0080
1ffc
0888
17f4
07d0
07f0
3e3e
0808
7f7f
2a2a
7f7f
3a3a
3e3e
0000
0000
ENDCHAR
STARTCHAR ch-428
ENCODING 428
SWIDTH 1000 0
DWIDTH 16 0
BBX 16 16 0 -2
BITMAP
0ffc
0840
0ff8
0840
0ff8
0842
0fff
0002
2922
2492
424a
0002
0014
0008
0000
0000
ENDCHAR
STARTCHAR ch-429
ENCODING 429
SWIDTH 1000 0
DWIDTH 16 0
BBX 16 16 0 -2
BITMAP
7f00
487f
7e01
4841
7e41
4841
4841
7f41
0122
5514
5508
2b14
0122
0641
0000
0000
ENDCHAR
STARTCHAR ch-430
ENCODING 430
SWIDTH 1000 0
DWIDTH 16 0
BBX 16 16 0 -2
BITMAP
03fe
4220
33fc
1220
03fc
0220
0220
03ff
0801
1001
62a9
24a9
0001
0006
0000
0000
ENDCHAR
STARTCHAR ch-431
ENCODING 431
SWIDTH 1000 0
DWIDTH 16 0
BBX 16 16 0 -2
BITMAP
7f3e
4408
4408
7f08
4408
7f7f
4408
4408
7f88
2488
2488
5a88
0088
0708
0000
0000
ENDCHAR
STARTCHAR ch-432
ENCODING 432
SWIDTH 1000 0
DWIDTH 16 0
BBX 16 16 0 -2
BITMAP
7f20
4420
443f
7f21
4441
7f01
4411
4409
7f85
2481
2481
5a81
008a
0704
0000
0000
ENDCHAR
STARTCHAR ch-433
ENCODING 433
SWIDTH 1000 0
DWIDTH 16 0
BBX 16 16 0 -2
BITMAP
7f08
4408
7f08
4408
7f7f
4408
7f88
0088
2488
2488
2488
5a94
00a2
0f41
0000
0000
ENDCHAR
STARTCHAR ch-434
ENCODING 434
SWIDTH 1000 0
DWIDTH 16 0
BBX 16 16 0 -2
BITMAP
7f01
447f
4410
7f10
4410
7f10
447f
4410
7f90
2490
2490
5a91
0091
071f
0000
0000
ENDCHAR
STARTCHAR ch-435
ENCODING 435
SWIDTH 1000 0
DWIDTH 16 0
BBX 16 16 0 -2
BITMAP
7f08
4848
7f48
48ff
7f49
4849
4849
7f4a
0148
2548
2540
5b40
0141
073f
0000
0000
ENDCHAR
STARTCHAR ch-436
ENCODING 436
SWIDTH 1000 0
DWIDTH 16 0
BBX 16 16 0 -2
BITMAP
7e41
4849
7e49
4849
7e49
4849
7f49
0149
2549
2549
2549
5b41
0141
0681
0000
0000
ENDCHAR
STARTCHAR ch-437
ENCODING 437
SWIDTH 1000 0
DWIDTH 16 0
BBX 16 16 0 -2
BITMAP
1ffe
1040
1ffe
1040
1ffe
1040
1fff
4921
4921
000e
0410
7fff
0410
0810
0000
0000
ENDCHAR
STARTCHAR ch-441
ENCODING 441
SWIDTH 1000 0
DWIDTH 16 0
BBX 16 16 0 -2
BITMAP
7f80
443f
4421
7fa1
4421
7fa1
443f
4421
7fa1
00a1
2aa1
55bf
2aa1
0300
0000
0000
ENDCHAR
STARTCHAR ch-442
ENCODING 442
SWIDTH 1000 0
DWIDTH 16 0
BBX 16 16 0 -2
BITMAP
7f00
48ff
4821
7f21
4822
7f24
482f
4821
7f21
2531
254a
5b84
010a
0731
0000
0000
ENDCHAR
STARTCHAR ch-443
ENCODING 443
SWIDTH 1000 0
DWIDTH 16 0
BBX 16 16 0 -2
BITMAP
7f08
4808
4810
7e20
4841
7eff
4825
4824
7f24
0124
2524
2525
5b45
0687
0000
0000
ENDCHAR
STARTCHAR ch-445
ENCODING 445
SWIDTH 1000 0
DWIDTH 16 0
BBX 16 16 0 -2
BITMAP
0ff8
0840
0ff8
0840
0ff8
0840
0ffe
2492
0080
1ffc
1084
1ffc
0080
0080
0000
0000
ENDCHAR
STARTCHAR ch-449
ENCODING 449
SWIDTH 1000 0
DWIDTH 16 0
BBX 16 16 0 -2
BITMAP
0000
7e81
4866
7e18
4824
7ec3
4800
4842
7f42
2542
2524
5b18
0118
0666
0000
0000
ENDCHAR
STARTCHAR ch-450
ENCODING 450
SWIDTH 1000 0
DWIDTH 16 0
BBX 16 16 0 -2
BITMAP
40ff
4088
7cfe
4088
40fe
7c88
10ff
1001
7d55
1155
1155
1001
1001
1006
0000
0000
ENDCHAR
STARTCHAR ch-451
ENCODING 451
SWIDTH 1000 0
DWIDTH 16 0
BBX 16 16 0 -2
BITMAP
7f10
4810
4810
7f7e
4812
7f12
4812
48ff
7f10
2510
2528
5b44
0182
0701
0000
0000
ENDCHAR
STARTCHAR ch-455
ENCODING 455
SWIDTH 1000 0
DWIDTH 16 0
BBX 16 16 0 -2
BITMAP
3f88
2208
2208
3f9f
2220
2202
3f92
2212
2212
3fd2
004a
5544
554a
00d1
0000
0000
ENDCHAR
STARTCHAR ch-457
ENCODING 457
SWIDTH 1000 0
DWIDTH 16 0
BBX 16 16 0 -2
BITMAP
7eff
4881
4881
7e81
48bd
7ea5
48a5
48a5
7ea5
2abd
2aa5
5681
0281
0c83
0000
0000
ENDCHAR
STARTCHAR ch-459
ENCODING 459
SWIDTH 1000 0
DWIDTH 16 0
BBX 16 16 0 -2
BITMAP
7f7f
4811
4811
7e11
4811
7e22
484c
4800
7f7f
2541
2541
5b41
017f
0e41
0000
0000
ENDCHAR
STARTCHAR ch-460
ENCODING 460
SWIDTH 1000 0
DWIDTH 16 0
BBX 16 16 0 -2
BITMAP
1f7e
2142
5244
0c41
387f
1ff8
1080
1ff8
1080
1ff8
1080
1ffe
2492
2496
0000
0000
ENDCHAR
STARTCHAR ch-461
ENCODING 461
SWIDTH 1000 0
DWIDTH 16 0
BBX 16 16 0 -2
BITMAP
7f7f
4808
4808
7e49
4849
7e2a
4808
487f
7f08
2508
2508
5b08
0108
0e08
0000
0000
ENDCHAR
STARTCHAR ch-462
ENCODING 462
SWIDTH 1000 0
DWIDTH 16 0
BBX 16 16 0 -2
BITMAP
7f00
4808
4808
7e08
487f
7e49
4849
4849
7f7f
2549
2549
5b49
017f
0e41
0000
0000
ENDCHAR
STARTCHAR ch-463
ENCODING 463
SWIDTH 1000 0
DWIDTH 16 0
BBX 16 16 0 -2
BITMAP
7f00
487f
4840
7e40
4840
7e7f
4841
4841
7f41
257f
2540
5b40
0140
0e7f
0000
0000
ENDCHAR
STARTCHAR ch-464
ENCODING 464
SWIDTH 1000 0
DWIDTH 16 0
BBX 16 16 0 -2
BITMAP
7f20
4810
4808
7e7f
4808
7e08
4808
7f7f
0108
5508
2b08
5508
017f
0600
0000
0000
ENDCHAR
STARTCHAR ch-465
ENCODING 465
SWIDTH 1000 0
DWIDTH 16 0
BBX 16 16 0 -2
BITMAP
223e
7f14
1408
0814
3622
1ffe
1080
1ffc
1ffc
1080
1fff
2491
2492
0004
0000
0000
ENDCHAR
STARTCHAR ch-466
ENCODING 466
SWIDTH 1000 0
DWIDTH 16 0
BBX 16 16 0 -2
BITMAP
7e40
4840
487f
7e41
4841
7e81
487d
7f45
0145
297d
5501
2901
020a
1c04
0000
0000
ENDCHAR
STARTCHAR ch-467
ENCODING 467
SWIDTH 1000 0
DWIDTH 16 0
BBX 16 16 0 -2
BITMAP
7f00
487f
4808
7f08
4808
7f10
4828
484a
7f09
2508
2508
5b08
0108
0e7f
0000
0000
ENDCHAR
STARTCHAR ch-468
ENCODING 468
SWIDTH 1000 0
DWIDTH 16 0
BBX 16 16 0 -2
BITMAP
7f00
483e
4822
7e22
4822
7e3e
4822
4822
7f22
253e
2522
5b22
0122
0e7f
0000
0000
ENDCHAR
STARTCHAR ch-469
ENCODING 469
SWIDTH 1000 0
DWIDTH 16 0
BBX 16 16 0 -2
BITMAP
1000
7f3f
2121
4e3f
1ffe
1040
1ffe
1ffe
1040
1fff
2491
2491
448a
0004
0000
0000
ENDCHAR
STARTCHAR ch-470
ENCODING 470
SWIDTH 1000 0
DWIDTH 16 0
BBX 16 16 0 -2
BITMAP
7f00
4808
4814
7e22
4841
7e1c
4800
4800
7f7f
2501
2502
5b14
0108
0e08
0000
0000
ENDCHAR
STARTCHAR ch-471
ENCODING 471
SWIDTH 1000 0
DWIDTH 16 0
BBX 16 16 0 -2
BITMAP
7f00
4808
4808
7e14
4822
7e45
4808
4832
7f04
2508
2571
5b02
0104
0e78
0000
0000
ENDCHAR
STARTCHAR ch-472
ENCODING 472
SWIDTH 1000 0
DWIDTH 16 0
BBX 16 16 0 -2
BITMAP
7f00
4810
4810
7e10
4822
7e7f
4801
4800
7f7f
2541
2541
5b41
017f
0e41
0000
0000
ENDCHAR
STARTCHAR ch-473
ENCODING 473
SWIDTH 1000 0
DWIDTH 16 0
BBX 16 16 0 -2
BITMAP
7e12
4822
4842
7e82
482f
7e22
4822
7f2a
0126
2922
5522
2922
0222
1c24
0000
0000
ENDCHAR
STARTCHAR ch-475
ENCODING 475
SWIDTH 1000 0
DWIDTH 16 0
BBX 16 16 0 -2
BITMAP
7f08
4808
487f
7e49
4849
7e49
487f
7f08
0108
5548
2b28
5510
0128
0647
0000
0000
ENDCHAR
STARTCHAR ch-476
ENCODING 476
SWIDTH 1000 0
DWIDTH 16 0
BBX 16 16 0 -2
BITMAP
7e00
4808
4808
7e25
48a1
7ea1
48a0
48a4
7ea4
2a28
2a30
5620
0261
1c9f
0000
0000
ENDCHAR
STARTCHAR ch-477
ENCODING 477
SWIDTH 1000 0
DWIDTH 16 0
BBX 16 16 0 -2
BITMAP
7f08
4408
447f
7f41
4441
7f20
4422
7f24
0138
5520
2b21
5521
0221
0c1f
0000
0000
ENDCHAR
STARTCHAR ch-479
ENCODING 479
SWIDTH 1000 0
DWIDTH 16 0
BBX 16 16 0 -2
BITMAP
7f7f
4855
4855
7e55
4855
7e55
4855
7f55
0155
5567
2b41
5541
017f
0641
0000
0000
ENDCHAR
STARTCHAR ch-482
ENCODING 482
SWIDTH 1000 0
DWIDTH 16 0
BBX 16 16 0 -2
BITMAP
7e42
4824
487e
7e24
4824
7e24
48ff
7f24
0124
5524
2b24
0124
1244
0c84
0000
0000
ENDCHAR
STARTCHAR ch-483
ENCODING 483
SWIDTH 1000 0
DWIDTH 16 0
BBX 16 16 0 -2
BITMAP
7e08
4828
7e2a
48ac
4868
7e28
4828
486c
7faa
2528
2528
5b48
0189
0e0f
0000
0000
ENDCHAR
STARTCHAR ch-484
ENCODING 484
SWIDTH 1000 0
DWIDTH 16 0
BBX 16 16 0 -2
BITMAP
7e00
487f
7e08
4810
4822
7e7f
4801
4808
7f08
253e
2508
5b08
0108
0e7f
0000
0000
ENDCHAR
STARTCHAR ch-485
ENCODING 485
SWIDTH 1000 0
DWIDTH 16 0
BBX 16 16 0 -2
BITMAP
7e04
4805
7eff
4844
4844
7e74
48c5
4845
7f46
2544
254c
5b55
0183
0e01
0000
0000
ENDCHAR
STARTCHAR ch-487
ENCODING 487
SWIDTH 1000 0
DWIDTH 16 0
BBX 16 16 0 -2
BITMAP
7e7f
4841
7e41
487f
4841
7e5d
4855
4855
7f55
255d
2555
5b41
0143
0e41
0000
0000
ENDCHAR
STARTCHAR ch-489
ENCODING 489
SWIDTH 1000 0
DWIDTH 16 0
BBX 16 16 0 -2
BITMAP
7e08
4814
7e22
4841
4880
7e3e
4808
4808
7f08
253e
2508
5b08
0108
0e7f
0000
0000
ENDCHAR
STARTCHAR ch-490
ENCODING 490
SWIDTH 1000 0
DWIDTH 16 0
BBX 16 16 0 -2
BITMAP
7e48
4848
7e7e
4888
4808
7e08
48ff
4824
7f24
2524
2524
5b25
0145
0e87
0000
0000
ENDCHAR
STARTCHAR ch-492
ENCODING 492
SWIDTH 1000 0
DWIDTH 16 0
BBX 16 16 0 -2
BITMAP
7e00
487f
7e22
4822
483e
7e22
4822
483e
7f22
2522
257f
5b02
0102
0e02
0000
0000
ENDCHAR
STARTCHAR ch-493
ENCODING 493
SWIDTH 1000 0
DWIDTH 16 0
BBX 16 16 0 -2
BITMAP
7f10
4808
487f
7f08
4811
7f22
487c
7f89
0092
22a4
558c
0092
0921
0640
0000
0000
ENDCHAR
STARTCHAR ch-494
ENCODING 494
SWIDTH 1000 0
DWIDTH 16 0
BBX 16 16 0 -2
BITMAP
7e08
48ff
7e00
4824
4842
7e81
4822
4822
7f22
2514
2508
5b14
0122
0ec1
0000
0000
ENDCHAR
STARTCHAR ch-496
ENCODING 496
SWIDTH 1000 0
DWIDTH 16 0
BBX 16 16 0 -2
BITMAP
7e7f
4841
7e49
4849
485d
7e49
4849
4849
7f49
2555
2563
5b41
0141
0e7f
0000
0000
ENDCHAR
STARTCHAR ch-497
ENCODING 497
SWIDTH 1000 0
DWIDTH 16 0
BBX 16 16 0 -2
BITMAP
7e20
483f
4841
7ea2
4814
7e08
4814
7f63
017f
5541
2b41
0141
127f
0c41
0000
0000
ENDCHAR
STARTCHAR ch-500
ENCODING 500
SWIDTH 1000 0
DWIDTH 16 0
BBX 16 16 0 -2
BITMAP
7e04
4805
4804
7eff
4804
7e54
4854
48fd
7f55
2556
2554
5b4d
0153
0e81
0000
0000
ENDCHAR
STARTCHAR ch-502
ENCODING 502
SWIDTH 1000 0
DWIDTH 16 0
BBX 16 16 0 -2
BITMAP
7e7e
4842
4842
7e7e
4840
7e7f
4841
485d
7f55
2555
255d
5b41
0141
0e8e
0000
0000
ENDCHAR
STARTCHAR ch-503
ENCODING 503
SWIDTH 1000 0
DWIDTH 16 0
BBX 16 16 0 -2
BITMAP
7e10
48fe
4810
7e10
48fe
7e92
4892
48fe
7f10
2538
2554
5b92
0111
0e10
0000
0000
ENDCHAR
STARTCHAR ch-504
ENCODING 504
SWIDTH 1000 0
DWIDTH 16 0
BBX 16 16 0 -2
BITMAP
7e7e
4802
48fe
7e02
487e
7e00
49ff
4901
7e7c
0244
0a28
1210
2228
4ec6
0000
0000
ENDCHAR
STARTCHAR ch-505
ENCODING 505
SWIDTH 1000 0
DWIDTH 16 0
BBX 16 16 0 -2
BITMAP
7e44
4842
49ff
7e42
4844
7e49
4842
4854
7f59
2552
2554
5b59
0151
0e8f
0000
0000
ENDCHAR
STARTCHAR ch-506
ENCODING 506
SWIDTH 1000 0
DWIDTH 16 0
BBX 16 16 0 -2
BITMAP
7e10
4808
487e
7e42
487e
7e42
487e
4840
7f52
2554
2548
5b54
0163
0ec0
0000
0000
ENDCHAR
STARTCHAR ch-507
ENCODING 507
SWIDTH 1000 0
DWIDTH 16 0
BBX 16 16 0 -2
BITMAP
7e7e
4842
487e
7e42
487e
7e00
487e
4808
7f08
25ff
2508
5b08
0108
0e08
0000
0000
ENDCHAR
STARTCHAR ch-508
ENCODING 508
SWIDTH 1000 0
DWIDTH 16 0
BBX 16 16 0 -2
BITMAP
7e10
4828
4844
7e82
4901
7e7c
4810
48ff
7f10
2538
2554
5b92
0111
0e30
0000
0000
ENDCHAR
STARTCHAR ch-509
ENCODING 509
SWIDTH 1000 0
DWIDTH 16 0
BBX 16 16 0 -2
BITMAP
7e3f
4821
4821
7e3f
4800
7e3f
4821
483f
7f21
253f
2521
5b21
0123
0e41
0000
0000
ENDCHAR
STARTCHAR ch-510
ENCODING 510
SWIDTH 1000 0
DWIDTH 16 0
BBX 16 16 0 -2
BITMAP
7e28
4844
4883
7e00
487c
7e44
4844
4844
7f7c
2528
2528
5b29
0149
0e8f
0000
0000
ENDCHAR
STARTCHAR ch-511
ENCODING 511
SWIDTH 1000 0
DWIDTH 16 0
BBX 16 16 0 -2
BITMAP
7c40
4844
4882
7dff
4844
7c82
4941
7e7c
0244
2aa8
2a10
5628
0244
0c83
0000
0000
ENDCHAR
ENDFONT
